<?xml version="1.0" encoding="UTF-8" standalone="no"?>
<!DOCTYPE svg PUBLIC "-//W3C//DTD SVG 1.1//EN" "http://www.w3.org/Graphics/SVG/1.1/DTD/svg11.dtd">
<svg version="1.1" xmlns="http://www.w3.org/2000/svg" xmlns:xlink="http://www.w3.org/1999/xlink" preserveAspectRatio="xMidYMid meet" viewBox="0 0 640 640" width="640" height="640"><defs><path d="M0 143.02L28.7 132.06L152.79 490.03L124.09 501L0 143.02Z" id="a5UwWu7r8"></path><path d="M123.93 483.68L152.79 483.68L152.79 501L123.93 501L123.93 483.68Z" id="a5dstxMdGu"></path><path d="M245.45 143.02L274.15 132.06L398.24 490.03L369.54 501L245.45 143.02Z" id="d6tJVqFwCq"></path><path d="M248.03 132.06L276.73 143.02L152.64 501L123.93 490.03L248.03 132.06Z" id="e27iVZpPZO"></path><path d="M263.06 135.81L277.4 141.29L152.71 501L138.36 495.52L263.06 135.81Z" id="bnhdnQzbP"></path><path d="M247.87 132.06L276.73 132.06L276.73 142.8L247.87 142.8L247.87 132.06Z" id="b24RDnH8YD"></path><path d="M0 132.06L28.86 132.06L28.86 142.8L0 142.8L0 132.06Z" id="a1Cr8PgTCZ"></path><path d="M260.58 132.06L277.4 132.06L277.4 142.85L260.58 142.85L260.58 132.06Z" id="b1m9PxgMP"></path><path d="M138.36 494.3L152.39 494.3L152.39 501L138.36 501L138.36 494.3Z" id="a1mcsiULKt"></path><path d="M487.21 143.02L515.91 132.06L640 490.03L611.3 501L487.21 143.02Z" id="d1NYpNtRKW"></path><path d="M489.78 132.06L518.48 143.02L394.39 501L365.69 490.03L489.78 132.06Z" id="bB3Kc0wHL"></path><path d="M504.81 135.81L519.16 141.29L394.46 501L380.12 495.52L504.81 135.81Z" id="cJuWD4F5K"></path><path d="M489.62 132.06L518.48 132.06L518.48 142.8L489.62 142.8L489.62 132.06Z" id="dOAeo0ppZ"></path><path d="M502.33 132.06L519.16 132.06L519.16 142.85L502.33 142.85L502.33 132.06Z" id="d2clXNQX6"></path><path d="M370.08 494.3L392.47 494.3L392.47 501L370.08 501L370.08 494.3Z" id="ac3JS00Tt"></path><path d="M380.12 494.3L394.14 494.3L394.14 501L380.12 501L380.12 494.3Z" id="c4qdnb9id"></path></defs><g><g><g><use xlink:href="#a5UwWu7r8" opacity="1" fill="#8324c9" fill-opacity="1"></use><g><use xlink:href="#a5UwWu7r8" opacity="1" fill-opacity="0" stroke="#8382c4" stroke-width="0" stroke-opacity="1"></use></g></g><g><use xlink:href="#a5dstxMdGu" opacity="1" fill="#8324c9" fill-opacity="1"></use></g><g><use xlink:href="#d6tJVqFwCq" opacity="1" fill="#c92494" fill-opacity="1"></use><g><use xlink:href="#d6tJVqFwCq" opacity="1" fill-opacity="0" stroke="#8382c4" stroke-width="0" stroke-opacity="1"></use></g></g><g><use xlink:href="#e27iVZpPZO" opacity="1" fill="#8324c9" fill-opacity="1"></use><g><use xlink:href="#e27iVZpPZO" opacity="1" fill-opacity="0" stroke="#8382c4" stroke-width="0" stroke-opacity="1"></use></g></g><g><use xlink:href="#bnhdnQzbP" opacity="1" fill="#a024c9" fill-opacity="1"></use></g><g><use xlink:href="#b24RDnH8YD" opacity="1" fill="#8324c9" fill-opacity="1"></use></g><g><use xlink:href="#a1Cr8PgTCZ" opacity="1" fill="#8324c9" fill-opacity="1"></use></g><g><use xlink:href="#b1m9PxgMP" opacity="1" fill="#a024c9" fill-opacity="1"></use></g><g><use xlink:href="#a1mcsiULKt" opacity="1" fill="#a024c9" fill-opacity="1"></use></g><g><use xlink:href="#d1NYpNtRKW" opacity="1" fill="#f243d3" fill-opacity="1"></use><g><use xlink:href="#d1NYpNtRKW" opacity="1" fill-opacity="0" stroke="#8382c4" stroke-width="0" stroke-opacity="1"></use></g></g><g><use xlink:href="#bB3Kc0wHL" opacity="1" fill="#c92494" fill-opacity="1"></use><g><use xlink:href="#bB3Kc0wHL" opacity="1" fill-opacity="0" stroke="#8382c4" stroke-width="0" stroke-opacity="1"></use></g></g><g><use xlink:href="#cJuWD4F5K" opacity="1" fill="#c92466" fill-opacity="1"></use></g><g><use xlink:href="#dOAeo0ppZ" opacity="1" fill="#c92494" fill-opacity="1"></use></g><g><use xlink:href="#d2clXNQX6" opacity="1" fill="#c92466" fill-opacity="1"></use></g><g><use xlink:href="#ac3JS00Tt" opacity="1" fill="#c92494" fill-opacity="1"></use></g><g><use xlink:href="#c4qdnb9id" opacity="1" fill="#c92466" fill-opacity="1"></use></g></g></g></svg>